# xmcd
#
# Track frame offsets:
# 150
# 10226
# 20727
# 33434
# 44920
# 56236
# 67140
# 79016
# 90404
# 102912
# 115008
# 125360
#
# Disc length: 1831 seconds
#
#
# Revision: 0
# Processed by: cddbd v1.4PL0 Copyright (c) Steve Scherf et al.
# Submitted via: FreeRIP 2.00 
#
DISCID=a107250c
DTITLE=Ira Louvin - The Unforgettable Ira Louvin
DYEAR=1965
DGENRE=Country
TTITLE0=Empty Wallet And A Broken Heart
TTITLE1=Yodel Sweet Molly
TTITLE2=It Ain't Funny Enough
TTITLE3=The Bottom Of The Bottle
TTITLE4=Make Believe It's Me
TTITLE5=Who Throw Dat Rock
TTITLE6=Life Is Too Short
TTITLE7=These Two Eyes
TTITLE8=Something Has Just Got To Give
TTITLE9=You're Looking For An Angel
TTITLE10=The Right Side Of The Road
TTITLE11=The Master Of The Universe
EXTD=Capitol ST2413
EXTT0=
EXTT1=
EXTT2=
EXTT3=
EXTT4=
EXTT5=
EXTT6=
EXTT7=
EXTT8=
EXTT9=
EXTT10=
EXTT11=
PLAYORDER=
